<svg width="109" height="31" viewBox="0 0 109 31" fill="none" xmlns="http://www.w3.org/2000/svg">
<path d="M2.816 30H5.504V19.44H17.6V30H20.288V7.344H17.6V16.944H5.504V7.344H2.816V30ZM26.8378 18.576C28.0218 17.488 29.6858 16.944 31.2858 16.944C33.6218 16.944 34.9978 18.064 34.9978 20.24V20.688H34.0378C30.3578 20.688 24.5978 20.976 24.5978 25.936C24.5978 28.848 27.1258 30.384 30.1658 30.384C32.4378 30.384 34.1018 29.296 35.0938 27.76H35.1578C35.1578 28.4 35.1578 29.328 35.3178 30H37.7178C37.5898 29.232 37.4938 28.272 37.4938 27.408V20.976C37.4938 16.752 35.6378 14.64 31.2218 14.64C29.0458 14.64 26.8058 15.376 25.2698 16.944L26.8378 18.576ZM34.9978 22.8V23.76C34.9338 26.192 33.4618 28.272 30.5818 28.272C28.6938 28.272 27.2858 27.568 27.2858 25.68C27.2858 23.664 29.3338 22.8 32.5017 22.8H34.9978ZM42.0555 30H44.5515V22.704C44.5515 19.28 45.8955 17.136 48.9355 17.136C49.3835 17.136 49.8635 17.2 50.2795 17.328L50.4395 14.8C50.0875 14.672 49.7355 14.64 49.4155 14.64C46.9515 14.64 45.0955 16.016 44.4235 17.488H44.3595C44.3595 16.656 44.2955 15.824 44.2955 15.024H41.9275C41.9275 16.016 42.0555 17.2 42.0555 18.576V30ZM53.1775 30H55.6735V27.344H55.7375C56.6655 29.04 58.8095 30.384 61.4975 30.384C65.6895 30.384 68.9855 26.992 68.9855 22.512C68.9855 17.968 65.8175 14.64 61.1135 14.64C58.9375 14.64 57.1135 15.6 55.7375 17.2H55.6735V5.808H53.1775V30ZM55.6735 22.512C55.6735 19.376 57.7535 16.944 60.9855 16.944C64.2175 16.944 66.2975 19.376 66.2975 22.512C66.2975 25.648 64.2175 28.08 60.9855 28.08C57.7535 28.08 55.6735 25.648 55.6735 22.512ZM72.004 22.512C72.004 27.184 75.396 30.384 80.004 30.384C84.612 30.384 88.004 27.184 88.004 22.512C88.004 17.84 84.612 14.64 80.004 14.64C75.396 14.64 72.004 17.84 72.004 22.512ZM74.692 22.512C74.692 19.376 76.772 16.944 80.004 16.944C83.236 16.944 85.316 19.376 85.316 22.512C85.316 25.648 83.236 28.08 80.004 28.08C76.772 28.08 74.692 25.648 74.692 22.512ZM91.868 30H94.364V22.704C94.364 19.28 95.708 17.136 98.748 17.136C99.196 17.136 99.676 17.2 100.092 17.328L100.252 14.8C99.9 14.672 99.548 14.64 99.228 14.64C96.764 14.64 94.908 16.016 94.236 17.488H94.172C94.172 16.656 94.108 15.824 94.108 15.024H91.74C91.74 16.016 91.868 17.2 91.868 18.576V30Z" fill="black"/>
<path d="M104.064 17.904H104.592V16.408H105.16L106.104 17.904H106.672L105.672 16.368C106.192 16.312 106.592 16.048 106.592 15.416C106.592 14.752 106.2 14.424 105.376 14.424H104.064V17.904ZM104.592 14.856H105.288C105.648 14.856 106.064 14.912 106.064 15.392C106.064 15.952 105.608 15.976 105.136 15.976H104.592V14.856ZM102.224 16.168C102.224 17.864 103.576 19.144 105.2 19.144C106.816 19.144 108.176 17.864 108.176 16.168C108.176 14.472 106.816 13.192 105.2 13.192C103.576 13.192 102.224 14.472 102.224 16.168ZM102.752 16.168C102.752 14.728 103.832 13.624 105.2 13.624C106.56 13.624 107.648 14.728 107.648 16.168C107.648 17.608 106.56 18.712 105.2 18.712C103.832 18.712 102.752 17.608 102.752 16.168Z" fill="black"/>
<path d="M61 9.09204C63.101 10.2587 68.7212 11.892 74.3939 9.09204" stroke="#00AFCC" stroke-width="1.5"/>
<path d="M87 9.63806C84.899 8.47139 79.2788 6.83806 73.6061 9.63806" stroke="#00AFCC" stroke-width="0.5"/>
<path d="M61 5.54602C63.101 6.71269 68.7212 8.34602 74.3939 5.54602" stroke="#00AFCC" stroke-width="1.5"/>
<path d="M87 6.09204C84.899 4.92537 79.2788 3.29204 73.6061 6.09204" stroke="#00AFCC" stroke-width="0.5"/>
<path d="M61 2C63.101 3.16667 68.7212 4.8 74.3939 2" stroke="#00AFCC" stroke-width="1.5"/>
<path d="M87 2.54602C84.899 1.37935 79.2788 -0.253979 73.6061 2.54602" stroke="#00AFCC" stroke-width="0.5"/>
</svg>
